<?xml version="1.0" encoding="UTF-8"?>
<svg id="Layer_1" data-name="Layer 1" xmlns="http://www.w3.org/2000/svg" viewBox="0 0 228.57 218.45">
  <defs>
    <style>
      .cls-1 {
        stroke: #e00a0a;
      }

      .cls-1, .cls-2 {
        fill: none;
        stroke-miterlimit: 10;
        stroke-width: 20px;
      }

      .cls-2 {
        stroke: #000;
      }

      .cls-3 {
        fill: #e00a0a;
      }
    </style>
  </defs>
  <path d="M83.72,43.71c-8.65,3.61-17.27,8.26-25.85,14.36l-4.31,27.29c5.69-2.19,11.48,20.68,17.24,37.35,7.15-7.62,15.17-12.76,24.42-14.36l4.67-19.22-16.88,5.57c-2.6-11.75-6.26-25.28-1.44-24.42l2.15-26.57Z"/>
  <circle class="cls-2" cx="77.38" cy="80.13" r="66.25"/>
  <line class="cls-2" x1="128.63" y1="122.38" x2="217.63" y2="211.38"/>
  <path class="cls-3" d="M84.3,40.88c-8.65,3.61-17.27,8.26-25.85,14.36l-4.31,27.29c5.69-2.19,11.48,20.68,17.24,37.35,7.15-7.62,15.17-12.76,24.42-14.36l4.67-19.22-16.88,5.57c-2.6-11.75-6.26-25.28-1.44-24.42l2.15-26.57Z"/>
  <g>
    <circle class="cls-1" cx="76.25" cy="76.25" r="66.25"/>
    <line class="cls-1" x1="132.5" y1="118.5" x2="221.5" y2="207.5"/>
  </g>
</svg>